<?xml version="1.0" encoding="UTF-8" standalone="no"?>
<!-- Created with Inkscape (http://www.inkscape.org/) -->

<svg
   width="15.453332"
   height="15.497158"
   viewBox="0 0 4.088694 4.1002896"
   version="1.1"
   id="svg5"
   inkscape:version="1.2.2 (732a01da63, 2022-12-09, custom)"
   sodipodi:docname="faviconicon.svg"
   xmlns:inkscape="http://www.inkscape.org/namespaces/inkscape"
   xmlns:sodipodi="http://sodipodi.sourceforge.net/DTD/sodipodi-0.dtd"
   xmlns:xlink="http://www.w3.org/1999/xlink"
   xmlns="http://www.w3.org/2000/svg"
   xmlns:svg="http://www.w3.org/2000/svg">
  <sodipodi:namedview
     id="namedview7"
     pagecolor="#ffffff"
     bordercolor="#000000"
     borderopacity="0.25"
     inkscape:showpageshadow="2"
     inkscape:pageopacity="0.0"
     inkscape:pagecheckerboard="0"
     inkscape:deskcolor="#d1d1d1"
     inkscape:document-units="mm"
     showgrid="false"
     inkscape:zoom="45.254834"
     inkscape:cx="6.3529125"
     inkscape:cy="7.3914756"
     inkscape:window-width="1920"
     inkscape:window-height="1016"
     inkscape:window-x="0"
     inkscape:window-y="0"
     inkscape:window-maximized="1"
     inkscape:current-layer="layer1" />
  <defs
     id="defs2">
    <inkscape:path-effect
       effect="fillet_chamfer"
       id="path-effect14119"
       is_visible="true"
       lpeversion="1"
       nodesatellites_param="F,0,0,1,0,0.52916667,0,1 @ F,0,0,1,0,0.52916667,0,1 @ F,0,0,1,0,0.52916667,0,1 @ F,0,0,1,0,0.52916667,0,1"
       unit="px"
       method="auto"
       mode="F"
       radius="2"
       chamfer_steps="1"
       flexible="false"
       use_knot_distance="true"
       apply_no_radius="true"
       apply_with_radius="true"
       only_selected="false"
       hide_knots="false" />
    <linearGradient
       inkscape:collect="always"
       id="linearGradient12053">
      <stop
         style="stop-color:#8ccafc;stop-opacity:1;"
         offset="0"
         id="stop12049" />
      <stop
         style="stop-color:#ffffff;stop-opacity:1;"
         offset="1"
         id="stop12051" />
    </linearGradient>
    <inkscape:path-effect
       effect="fillet_chamfer"
       id="path-effect5244"
       is_visible="true"
       lpeversion="1"
       nodesatellites_param="F,0,0,1,0,0.52916667,0,1 @ F,0,0,1,0,0.52916667,0,1 @ F,0,0,1,0,0.52916667,0,1 @ F,0,0,1,0,0.52916667,0,1"
       unit="px"
       method="auto"
       mode="F"
       radius="2"
       chamfer_steps="1"
       flexible="false"
       use_knot_distance="true"
       apply_no_radius="true"
       apply_with_radius="true"
       only_selected="false"
       hide_knots="false" />
    <linearGradient
       inkscape:collect="always"
       id="linearGradient3412">
      <stop
         style="stop-color:#ffffff;stop-opacity:1;"
         offset="0"
         id="stop3408" />
      <stop
         style="stop-color:#ffde25;stop-opacity:1;"
         offset="1"
         id="stop3410" />
    </linearGradient>
    <inkscape:path-effect
       effect="fillet_chamfer"
       id="path-effect3194"
       is_visible="true"
       lpeversion="1"
       nodesatellites_param="F,0,0,1,0,0.52916667,0,1 @ F,0,0,1,0,0.52916667,0,1 @ F,0,0,1,0,0.52916667,0,1 @ F,0,0,1,0,0.52916667,0,1"
       unit="px"
       method="auto"
       mode="F"
       radius="2"
       chamfer_steps="1"
       flexible="false"
       use_knot_distance="true"
       apply_no_radius="true"
       apply_with_radius="true"
       only_selected="false"
       hide_knots="false" />
    <inkscape:path-effect
       effect="fillet_chamfer"
       id="path-effect3078"
       is_visible="true"
       lpeversion="1"
       nodesatellites_param="F,0,0,1,0,0.52916667,0,1 @ F,0,0,1,0,0.52916667,0,1 @ F,0,0,1,0,0.52916667,0,1 @ F,0,0,1,0,0.52916667,0,1"
       unit="px"
       method="auto"
       mode="F"
       radius="2"
       chamfer_steps="1"
       flexible="false"
       use_knot_distance="true"
       apply_no_radius="true"
       apply_with_radius="true"
       only_selected="false"
       hide_knots="false" />
    <linearGradient
       inkscape:collect="always"
       xlink:href="#linearGradient3412"
       id="linearGradient3414"
       x1="3.9592423"
       y1="0.28477407"
       x2="2.8592448"
       y2="1.3404913"
       gradientUnits="userSpaceOnUse"
       gradientTransform="matrix(1.1303889,0,0,1.1303889,-0.50091578,-0.07492237)" />
    <linearGradient
       inkscape:collect="always"
       xlink:href="#linearGradient12053"
       id="linearGradient12055"
       x1="0.093425371"
       y1="0.082816102"
       x2="4.6386261"
       y2="4.3836193"
       gradientUnits="userSpaceOnUse" />
  </defs>
  <g
     inkscape:label="Layer 1"
     inkscape:groupmode="layer"
     id="layer1"
     transform="translate(-0.07572619,-0.06999389)">
    <path
       style="opacity:1;fill:url(#linearGradient12055);fill-opacity:1;stroke-width:0.475;stroke-dasharray:none"
       id="rect3022"
       width="4.0886941"
       height="4.1002898"
       x="0.075726189"
       y="0.069993891"
       ry="0"
       inkscape:path-effect="#path-effect3078"
       d="M 0.60489286,0.06999389 H 3.6352536 A 0.52916667,0.52916667 45 0 1 4.1644203,0.59916056 V 3.641117 A 0.52916667,0.52916667 135 0 1 3.6352536,4.1702837 H 0.60489286 A 0.52916667,0.52916667 45 0 1 0.07572619,3.641117 V 0.59916056 A 0.52916667,0.52916667 135 0 1 0.60489286,0.06999389 Z"
       sodipodi:type="rect" />
    <path
       id="path3134"
       style="opacity:1;fill:#ffffff;fill-opacity:1;stroke-width:0.475001;stroke-dasharray:none"
       d="M 1.7617344,0.75002345 C 1.2614102,0.7464384 1.4254662,1.0972729 1.4254662,1.0972729 c 0,0 -0.096232,-0.20081146 -0.3781262,-0.31575913 -0.28189465,-0.11494763 -0.51376062,0.12150421 -0.51376062,0.12150421 0,0 -0.0634332,-0.34322808 -0.45346069,-0.0104968 L 0.0676356,0.81037183 0.05431277,1.8606469 c 0.07446364,0.1333389 0.3511668,0.00987 0.41105372,-0.00937 0.12557358,-0.04034 -0.20394383,0.126043 0.24153888,0.4093904 C 1.1523881,2.544019 1.323373,2.2187484 1.323373,2.2187484 c 0,0 -0.084505,-0.09765 0.4025594,-0.037837 0.3925308,0.048204 0.3364942,-0.3939036 0.3364942,-0.3939036 0,0 0.5914368,-0.1290945 0.5914368,-0.3827286 0,-0.2536341 -0.4929932,-0.3467489 -0.4929932,-0.3467489 0,0 0.1011884,-0.30392206 -0.3991358,-0.30750705 z"
       sodipodi:nodetypes="scsccccsccscscs" />
    <circle
       style="opacity:1;fill:url(#linearGradient3414);fill-opacity:1;stroke-width:0.536936;stroke-dasharray:none"
       id="path3346"
       cx="3.3601027"
       cy="0.82380766"
       r="0.6406424" />
    <path
       style="opacity:1;fill:#000000;fill-opacity:0.12797672;stroke-width:0.475001;stroke-dasharray:none"
       d="M 1.4201935,1.0822787 C 1.6379532,1.4006943 1.627311,1.6626777 1.5173129,1.6668118 1.4073148,1.6709459 1.2577842,1.6856333 1.1913961,1.6169925 1.1250081,1.5483516 1.0813173,1.3289287 1.0813173,1.3289287 c 0,0 0.070732,0.2263024 0.1262035,0.2607802 0.055471,0.034478 0.1964996,0.049957 0.2160882,0.045847 0.019589,-0.00411 0.1143099,-0.015366 0.1221825,-0.058305 0.00787,-0.04294 -7.038e-4,-0.1784371 -0.0087,-0.1965966 -0.008,-0.018159 -0.1168937,-0.2983748 -0.1168937,-0.2983748 z"
       id="path3503" />
    <path
       id="path4099"
       style="opacity:1;fill:#000000;fill-opacity:0.13593307;stroke-width:0.475001;stroke-dasharray:none"
       d="M 0.58577258 1.3112618 C 0.54263617 1.3113946 0.4872745 1.3139378 0.54081408 1.3371 C 0.61220011 1.367985 0.67568957 1.4699084 0.67568957 1.4699084 C 0.67568957 1.4699084 0.6746321 1.642524 0.66432075 1.6611112 C 0.65400966 1.6796982 0.54393078 1.7868142 0.53047879 1.7944364 C 0.51702691 1.8020564 0.42402534 1.8647164 0.42402534 1.8647164 L 0.42815946 1.8647164 C 0.44372102 1.8589896 0.45704816 1.853953 0.46536649 1.8512805 C 0.49865815 1.8405857 0.49948189 1.8449233 0.49172147 1.8616158 L 0.49482206 1.8616158 C 0.68516068 1.694249 0.6867193 1.7150081 0.71599719 1.5959989 C 0.74527507 1.4769899 0.64863208 1.3102282 0.61987902 1.3112618 C 0.61269075 1.3115193 0.60015138 1.3112175 0.58577258 1.3112618 z " />
    <path
       id="path4158"
       style="opacity:1;fill:#00f000;fill-opacity:0.12797701;stroke-width:0.475001;stroke-dasharray:none"
       d="M 0.92373644 3.3261259 C 0.71506937 3.3258517 0.61671495 3.4834047 0.080893833 3.4894234 C 0.080893833 3.4894234 0.075912578 3.4949082 0.07572619 3.4951078 L 0.07572619 3.6413521 A 0.52916667 0.52916667 0 0 0 0.60489286 4.1705188 L 3.6351988 4.1705188 A 0.52916667 0.52916667 0 0 0 4.1643655 3.6413521 L 4.1643655 3.4542834 C 4.1201043 3.4654956 4.0099594 3.4972471 3.9369892 3.5529854 C 3.8446325 3.6235304 3.6065719 3.5852175 3.531846 3.5746895 C 3.4571204 3.5641605 3.3531705 3.5589982 3.2414244 3.5359322 C 3.1296785 3.5128653 2.8879282 3.4582725 2.8647032 3.4144926 C 2.8414771 3.3707126 2.7245828 3.3544491 2.5365579 3.393822 C 2.3485331 3.433194 2.1131221 3.4821847 1.9510639 3.4713367 C 1.7890059 3.4604887 1.6183466 3.4715442 1.4234475 3.4392973 C 1.2285485 3.4070499 1.2079708 3.3523789 0.96714465 3.3281929 C 0.95209301 3.3266813 0.93764758 3.3261442 0.92373644 3.3261259 z " />
    <path
       id="path5248"
       style="opacity:1;fill:#b1933f;fill-opacity:1;stroke-width:0.475001;stroke-dasharray:none"
       d="M 3.308087 3.2274239 C 3.284878 3.2282916 3.2624345 3.234385 3.2471088 3.2496448 C 3.2004019 3.2961537 3.1342804 3.3640597 3.1163675 3.4346464 C 3.0990152 3.5030275 3.1143515 3.6299127 3.1153339 3.6377348 C 3.3390079 3.6920677 3.4321105 3.674425 3.4321105 3.674425 C 3.4321105 3.674425 3.4605814 3.4461363 3.4584654 3.4000232 C 3.4564117 3.3553513 3.409212 3.2509338 3.4062723 3.2444771 C 3.4046224 3.2438823 3.396624 3.2414096 3.3850849 3.238276 L 3.3856017 3.2558459 L 3.380434 3.2367257 C 3.3776824 3.2360199 3.3747029 3.2353578 3.371649 3.2346586 L 3.3711323 3.2475777 L 3.3669982 3.2336251 C 3.3649567 3.2331882 3.3629338 3.2324879 3.360797 3.2320748 L 3.3602802 3.2646309 L 3.3509785 3.2305245 L 3.3504617 3.2305245 C 3.3369856 3.22839 3.3224545 3.2268868 3.308087 3.2274239 z " />
    <path
       id="path6492"
       style="opacity:1;fill:#9ad07b;fill-opacity:0.46312901;stroke-width:0.475001;stroke-dasharray:none"
       d="m 0.76043892,3.3571317 c -0.054994,0.018609 -0.11388579,0.042769 -0.18965251,0.065629 0.0572762,0.062895 0.20987915,0.2102513 0.30385742,0.234611 0.11738136,0.030426 0.85303447,-0.1922806 0.85303447,-0.1922806 0,0 -0.018614,0.00151 -0.169872,-0.00926 -0.043543,-0.00364 -0.088316,-0.00892 -0.1343588,-0.016536 -0.027694,-0.00458 -0.051594,-0.00965 -0.073381,-0.014986 -0.087989,0.029082 -0.2121631,0.073097 -0.2490804,0.076998 -0.047915,0.00506 -0.1972965,-0.043809 -0.34054768,-0.1441773 z"
       sodipodi:nodetypes="ccsccsccc" />
    <path
       id="path10292"
       style="opacity:1;fill:#9ad07b;fill-opacity:0.68649298;stroke-width:0.475001;stroke-dasharray:none"
       d="M 0.62918078 3.4041573 C 0.61073069 3.4104589 0.59149221 3.4165136 0.57078641 3.4227608 C 0.62806255 3.4856558 0.78066566 3.6330121 0.87464383 3.6573718 C 0.99202508 3.6877978 1.7278217 3.4651355 1.7278217 3.4651355 C 1.7278217 3.4651355 1.725329 3.4652695 1.7180032 3.4651355 C 1.5590633 3.4865751 1.3233665 3.5224566 1.26015 3.5488513 C 1.1634313 3.5892343 0.83232539 3.5802598 0.8229674 3.5762398 C 0.81712883 3.5737322 0.7109767 3.4780045 0.62918078 3.4041573 z " />
    <path
       id="path11539"
       style="opacity:1;fill:#7ba8d0;fill-opacity:0.686493;stroke-width:0.475001;stroke-dasharray:none"
       d="M 0.90573043,3.6534234 C 0.83254517,3.6705772 0.71595068,3.5532213 0.5709156,3.4189012 c 0.006519,0.027536 -0.29159494,0.058464 -0.28562532,0.066961 0.0142433,0.020275 0.23047695,0.1326875 0.29066377,0.152389 0.0601868,0.019702 0.16130751,0.070329 0.21083985,0.1012858 0.0495286,0.030957 0.0728638,0.1531466 0.0728638,0.1741496 0,0.021002 0.005878,0.070046 -0.0366903,0.1891358 -0.009312,0.026051 -0.0200351,0.048614 -0.0315226,0.067696 H 1.1319925 C 1.1281217,4.1257315 1.1197124,4.044183 1.1077045,4.023241 1.0909386,3.9939993 1.0477922,3.8796373 1.0425922,3.8558093 c -0.0052,-0.023828 -0.00727,-0.091342 -0.00517,-0.1235067 0.0021,-0.032165 0.1417182,0.033547 0.1806172,0.031297 0.038899,-0.00224 0.369818,-0.1526578 0.4145419,-0.1611578 0.044444,-0.00845 0.2293313,-0.024783 0.3256504,-0.1287955 -0.1011284,-0.00227 -0.1419306,-0.035219 -0.2535457,-0.00254 -0.1729686,0.050637 -0.2445828,0.069349 -0.501439,0.1323966 -0.04089,0.010037 -0.28397489,0.04675 -0.29751897,0.049924 z"
       sodipodi:nodetypes="scsscssccccscccsss" />
    <path
       style="opacity:1;fill:#7ba8d0;fill-opacity:0.686493;stroke-width:0.475001;stroke-dasharray:none"
       d="m 1.5256175,3.5422747 c 0.028369,-0.00333 0.039246,-0.00931 0.049416,-0.00749 0.01017,0.00183 0.035112,0.00466 0.041902,0.00742 0.00679,0.00276 0.016633,0.00623 -0.00588,0.011671 -0.022515,0.00545 -0.00676,0.010615 -0.022515,0.00545 -0.015757,-0.00517 9.763e-4,-0.010964 -0.017825,-0.013073 -0.018801,-0.00212 -0.00836,0.00594 -0.024381,0.00872 -0.01602,0.00278 -0.03921,0.00533 -0.046731,0.00278 -0.00752,-0.00257 -0.017982,-5.027e-4 -0.026206,-5.027e-4 -0.00822,0 -0.00124,-0.00585 0.00844,-0.00688 0.00969,-0.00103 0.04378,-0.00809 0.04378,-0.00809 z"
       id="path11598" />
    <path
       style="opacity:1;fill:#7ba8d0;fill-opacity:0.686493;stroke-width:0.475001;stroke-dasharray:none"
       d="m 1.6869125,3.5194522 c 0.025543,-0.014102 0.032035,-0.018158 0.046105,-0.018158 0.01407,0 0.048641,-0.02131 0.051442,0.00563 0.0028,0.026936 -0.00201,0.042532 -0.011785,0.042532 -0.00977,0 -0.03428,0.00819 -0.04298,0.00106 -0.0087,-0.00713 0.00244,-0.028907 -0.00752,-0.029972 -0.00996,-0.00106 -0.012164,0.00991 -0.02759,0.016084 -0.015426,0.00618 -0.038342,0.00964 -0.038342,0.00964 z"
       id="path11600" />
    <path
       style="opacity:1;fill:#7ba8d0;fill-opacity:0.686493;stroke-width:0.475001;stroke-dasharray:none"
       d="m 1.4734889,3.6003904 c -0.040574,0.012097 -0.01711,-0.010255 -0.044341,0.014055 -0.027231,0.024307 -0.010803,0.042072 0.00476,0.032532 0.015559,-0.00954 0.020816,-0.0023 0.025761,-0.019333 0.00495,-0.017034 0.013823,-0.027251 0.013823,-0.027251 z"
       id="path11602" />
    <path
       style="opacity:1;fill:#7ba8d0;fill-opacity:0.686493;stroke-width:0.475001;stroke-dasharray:none"
       d="m 0.55146427,3.4893426 -0.0454753,0.017997 c 0,0 -0.0419225,0.018515 0.0195482,0.038442 0.0614708,0.019928 0.1006883,-0.023643 0.1006883,-0.023643 L 0.60035509,3.48733 Z"
       id="path11604" />
    <path
       style="opacity:1;fill:#7ba8d0;fill-opacity:0.686493;stroke-width:0.475001;stroke-dasharray:none"
       d="m 0.64083218,3.6144802 c 0,0 0.0894971,0.00861 0.10636464,0.022545 0.0168675,0.013928 -0.0235371,0.035956 0.0309332,0.063287 0.0544702,0.027332 0.0870021,0.024223 0.0870021,0.024223 0,0 -0.0313288,-0.011554 -0.0531137,-0.035366 -0.0217847,-0.023813 -0.0118128,-0.019185 -0.0258948,-0.050813 -0.0140819,-0.031628 -0.0269848,-0.029787 -0.0615272,-0.031821 -0.0345425,-0.00204 -0.0686085,-0.00814 -0.0686085,-0.00814 z"
       id="path11606" />
    <path
       style="opacity:1;fill:#7ba8d0;fill-opacity:0.686493;stroke-width:0.475001;stroke-dasharray:none"
       d="M 0.9952437,3.802526 C 0.9795954,3.835195 0.9652795,3.782275 0.980976,3.852959 c 0.0156967,0.070684 0.0103595,0.055366 0.0377319,0.090813 0.027372,0.035447 0.044167,0.015139 0.025652,0.05439 -0.018515,0.03925 -0.010432,0.008 -0.018515,0.069973 -0.00808,0.061971 -0.00332,0.088956 0.00979,0.073219 0.013105,-0.015738 0.012951,-0.010803 0.015019,-0.053913 0.00207,-0.04311 0.015632,-0.079614 0.015632,-0.079614 0,0 0.015729,-0.043352 -0.00365,-0.055697 -0.019379,-0.012345 -0.052395,-0.053049 -0.052395,-0.065145 0,-0.012097 -0.010069,-0.037643 -0.00387,-0.052129 0.0062,-0.014486 -0.0111265,-0.03233 -0.0111272,-0.03233 z"
       id="path11608" />
    <path
       id="path14059"
       style="opacity:1;fill:#ffffff;fill-opacity:0.15532;stroke-width:0.475001;stroke-dasharray:none"
       d="M 4.1643655 2.9132312 C 3.9835368 2.9424399 3.5479463 3.0160673 3.5106586 3.0160673 C 3.467221 3.0160673 2.9623044 3.0103515 2.7902892 2.9804106 C 2.6182737 2.9504696 2.373671 2.9456328 1.4689228 3.0217517 C 0.57988019 3.0965492 1.2449879 3.0529094 0.07572619 2.9819608 L 0.07572619 3.6413521 A 0.52916667 0.52916667 0 0 0 0.60489286 4.1705188 L 3.6351988 4.1705188 A 0.52916667 0.52916667 0 0 0 4.1643655 3.6413521 L 4.1643655 2.9132312 z " />
    <path
       style="opacity:1;fill:#7ba8d0;fill-opacity:0.686493;stroke-width:0.475001;stroke-dasharray:none"
       d="m 0.94670014,3.9358836 c -0.0107873,0.027195 -0.0319748,0.00291 -0.0237389,0.056521 0.008236,0.053614 0.006484,0.048414 0.0103029,0.067559 0.003819,0.019145 0.0152768,0.044539 -3.1485e-4,0.058403 -0.0155919,0.013864 -0.0236905,0.029221 -0.0356164,0.029221 -0.0119258,0 -0.0564161,-0.01166 -0.015172,-0.027913 0.0412443,-0.016253 0.0428107,-0.00732 0.0428107,-0.022003 0,-0.014679 0.00373,-0.023762 -0.003448,-0.037958 -0.007178,-0.014195 -0.0161893,-0.020219 -0.0161893,-0.035398 0,-0.015179 -0.003658,0.00747 0,-0.049262 0.003658,-0.056731 0.0316034,-0.060704 0.0316034,-0.060704 z"
       id="path11610" />
    <path
       id="path11612"
       style="opacity:1;fill:#000000;fill-opacity:0.129825;stroke-width:0.475001;stroke-dasharray:none"
       d="M 3.3111876 3.2274239 C 3.2868096 3.2278544 3.2631643 3.2336583 3.2471088 3.2496448 C 3.2004019 3.2961537 3.1342804 3.3640597 3.1163675 3.4346464 C 3.0984555 3.5052333 3.1153339 3.6377348 3.1153339 3.6377348 C 3.3390079 3.6920677 3.4321105 3.674425 3.4321105 3.674425 C 3.4321105 3.674425 3.4551216 3.4923592 3.4584654 3.4206938 C 3.4526227 3.4122038 3.3863127 3.3163018 3.3122211 3.2279407 C 3.3122211 3.2279407 3.3117323 3.2274562 3.3117044 3.2274239 C 3.3115339 3.2274264 3.3113581 3.2274209 3.3111876 3.2274239 z " />
    <path
       id="path12111"
       style="opacity:1;fill:#000000;fill-opacity:0.0445733;stroke-width:0.475001;stroke-dasharray:none"
       d="M 1.7572773,1.4032458 C 1.6924788,1.4129961 1.6271977,1.9425753 1.5676248,1.9572172 1.5007362,1.9736567 1.2283365,1.8420433 1.1800515,1.8099394 1.1317665,1.7778355 1.0038024,1.6800695 0.8012633,1.5923816 0.59872419,1.5046935 0.47027538,1.5755226 0.08347766,1.6254545 l -0.0031006,0.2661336 c 0.09850968,0.080077 0.33071695,-0.022871 0.38498942,-0.040308 0.12557345,-0.04034 -0.20415333,0.1259302 0.24132894,0.4092774 0.44548227,0.2833514 0.61649987,-0.041858 0.61649987,-0.041858 0,0 -0.084504,-0.097537 0.4025594,-0.037724 0.3925304,0.048204 0.3364135,-0.3937744 0.3364135,-0.3937744 0.00452,-0.015317 0.6940064,-0.1300939 0.5683216,-0.4731187 -0.00627,-0.017099 -0.8652548,0.087965 -0.8732125,0.089163 z"
       sodipodi:nodetypes="sssscccccscss" />
    <path
       style="opacity:1;fill:#000000;fill-opacity:0.15532047;stroke-width:0.475001;stroke-dasharray:none"
       d="M 2.0628125,1.7916801 C 1.7327467,1.3593687 1.885978,1.4406604 1.8917903,1.4698131 c 0.00581,0.029153 0.00808,0.054765 0.018213,0.087355 0.010128,0.03259 -0.00261,0.027554 0.031185,0.06132 0.0338,0.033766 0.1201164,0.1516442 0.1201164,0.1516442 z"
       id="path12440" />
    <path
       style="opacity:1;fill:#ffffff;fill-opacity:0.15532;stroke-width:0.475001;stroke-dasharray:none"
       d="m 3.306286,3.2320593 c -0.055989,0.020663 -0.074685,0.041779 -0.1031572,0.081172 -0.028473,0.039394 -0.017294,0.073456 0.00208,0.091091 0.019384,0.017636 0.049555,0.058411 0.1074512,0.05985 0.057897,0.00144 0.1348881,-0.00106 0.1348881,-0.00106 0,0 0.0063,-0.040748 -2.076e-4,-0.044381 -0.0065,-0.00363 -0.1410679,-0.1866564 -0.1410679,-0.1866564 z"
       id="path14849" />
    <path
       style="opacity:1;fill:#8c600d;fill-opacity:0.34654728;stroke-width:0.475001;stroke-dasharray:none"
       d="m 3.1781126,3.3437483 c -0.00372,0.043957 0.03346,0.1048427 0.054793,0.1172289 0.021333,0.012385 0.082501,0.032661 0.1040593,0.028498 0.021558,-0.00416 0.090345,-0.00958 0.095375,-0.011478 0.00503,-0.00191 0.015417,0.019145 0.013351,0.038281 -0.00206,0.019137 -0.00538,0.1332444 -0.020553,0.1432808 -0.015177,0.010036 -0.2389711,-0.00609 -0.255229,-0.014901 -0.016259,-0.00881 -0.048253,7.144e-4 -0.046186,-0.036549 0.00206,-0.037264 -0.00299,-0.1616019 0.00201,-0.182979 0.005,-0.021378 0.052375,-0.081382 0.052375,-0.081382 z"
       id="path15577" />
    <path
       style="opacity:1;fill:#8c600d;fill-opacity:0.346547;stroke-width:0.475001;stroke-dasharray:none"
       d="m 2.2707065,2.3388665 c 0.1850561,-0.088292 0.1864378,0.087869 0.243921,0.035353 0.057483,-0.052516 0.2115823,0.00934 0.2115823,0.00934 0,0 -0.076918,-0.016934 -0.1312726,-0.00842 -0.054354,0.00852 -0.1161882,0.040492 -0.1319464,0.024733 -0.015758,-0.015758 -0.032247,-0.069564 -0.087892,-0.067463 -0.055645,0.0021 -0.1043924,0.00645 -0.1043924,0.00645 z"
       id="path20973" />
    <path
       style="fill:#8c600d;fill-opacity:0.346547;stroke-width:0.605594;stroke-dasharray:none"
       d="m 3.388043,2.6980022 c 0.2359338,-0.1125662 0.2376954,0.1120269 0.3109825,0.045073 0.073287,-0.066954 0.2697528,0.011908 0.2697528,0.011908 0,0 -0.098065,-0.02159 -0.1673635,-0.010735 -0.069298,0.010862 -0.1481319,0.051624 -0.1682226,0.031533 -0.02009,-0.02009 -0.041113,-0.088689 -0.1120562,-0.086011 -0.070943,0.00268 -0.1330931,0.00822 -0.1330931,0.00822 z"
       id="path20973-3" />
    <path
       style="fill:#8c600d;fill-opacity:0.346547;stroke-width:0.311712;stroke-dasharray:none"
       d="M 3.1512589,2.00467 C 3.2726989,1.94673 3.2736056,2.062333 3.311328,2.02787 3.34905,1.993407 3.4501754,2.034 3.4501754,2.034 c 0,0 -0.050476,-0.011113 -0.086146,-0.00553 C 3.3283604,2.03406 3.2877824,2.055042 3.2774414,2.044701 3.2671004,2.03436 3.2562794,1.999051 3.2197634,2.00043 3.1832474,2.00181 3.1512574,2.00466 3.1512574,2.00466 Z"
       id="path20973-6" />
  </g>
</svg>
